<?xml version="1.0" standalone="no"?>
<!DOCTYPE svg PUBLIC "-//W3C//DTD SVG 20010904//EN"
 "http://www.w3.org/TR/2001/REC-SVG-20010904/DTD/svg10.dtd">
<svg version="1.0" xmlns="http://www.w3.org/2000/svg"
 width="700.000000pt" height="700.000000pt" viewBox="0 0 700.000000 700.000000"
 preserveAspectRatio="xMidYMid meet">
<metadata>
Created by potrace 1.11, written by Peter Selinger 2001-2013
</metadata>
<g transform="translate(0.000000,700.000000) scale(0.100000,-0.100000)"
fill="#000000" stroke="none">
<path d="M3180 5244 c-267 -14 -583 -56 -694 -93 -86 -28 -91 -35 -71 -111 9
-34 15 -63 13 -65 -2 -1 -39 -8 -83 -14 -79 -11 -346 -68 -353 -75 -1 -2 40
-43 92 -92 88 -81 96 -91 96 -125 0 -43 14 -38 -183 -69 -762 -122 -1677 -409
-1878 -589 -111 -99 -122 -167 -117 -766 3 -402 4 -422 24 -465 37 -80 89
-119 182 -139 76 -16 6508 -16 6584 0 93 20 145 59 182 139 20 43 21 63 24
465 5 599 -6 667 -117 766 -201 180 -1117 467 -1878 589 -197 31 -183 26 -183
69 0 34 8 44 96 125 52 49 93 90 92 92 -8 7 -280 65 -358 76 l-82 11 7 36 c4
20 9 48 12 63 4 23 0 29 -33 46 -93 47 -263 81 -524 107 -149 15 -691 27 -850
19z m55 -144 c3 -5 -3 -10 -15 -10 -20 0 -21 -3 -15 -92 11 -171 15 -200 31
-194 8 3 14 2 14 -3 0 -14 -40 -21 -120 -21 -56 1 -71 3 -57 11 19 11 22 61
10 207 -5 74 -8 82 -26 82 -13 0 -17 4 -11 9 5 6 38 12 74 14 36 2 75 4 87 5
12 1 25 -2 28 -8z m345 -1 c0 -6 -31 -71 -70 -144 -38 -73 -70 -135 -70 -139
0 -12 36 -5 67 13 18 12 37 35 44 55 23 65 42 42 33 -38 l-7 -56 -138 0 c-92
0 -139 4 -139 11 0 10 72 149 127 247 l24 42 -27 0 c-25 0 -74 -41 -101 -85
-10 -17 -12 -10 -12 43 l-1 62 135 0 c93 0 135 -3 135 -11z m293 5 c43 -4 77
-11 77 -16 0 -5 -36 -68 -80 -140 -44 -71 -80 -132 -80 -134 0 -2 13 -4 29 -4
35 0 74 30 91 70 21 50 33 36 27 -31 -3 -33 -8 -63 -10 -66 -10 -9 -277 9
-277 19 0 6 38 73 85 149 81 132 84 139 58 133 -41 -9 -73 -32 -91 -65 -30
-51 -39 -30 -26 54 l7 37 57 0 c31 0 91 -3 133 -6z m-889 -55 c28 -33 32 -64
15 -102 -15 -34 -45 -49 -111 -55 -55 -4 -59 -7 -54 -26 3 -12 6 -36 6 -53 0
-28 3 -33 25 -33 46 0 26 -17 -27 -24 -85 -10 -166 -7 -145 5 20 12 21 27 6
176 -11 104 -14 113 -32 113 -13 0 -17 4 -11 9 10 10 74 16 216 19 85 2 87 2
112 -29z m1285 -131 c29 -101 50 -158 58 -158 7 0 13 -4 13 -10 0 -11 -157 -2
-180 11 -12 7 -11 8 6 9 20 0 21 3 11 45 -9 39 -14 45 -36 45 -14 0 -35 3 -47
6 -16 4 -24 -2 -37 -28 -16 -32 -16 -34 4 -50 21 -18 20 -18 -35 -18 -54 0
-75 13 -37 23 12 3 44 55 90 146 l72 142 37 -3 37 -3 44 -157z m-194 -352
c111 -14 145 -28 192 -79 31 -33 38 -35 115 -42 46 -3 127 -16 181 -27 84 -17
103 -18 123 -7 21 11 36 10 92 -3 37 -9 69 -15 71 -12 2 2 0 39 -6 81 -5 43
-9 79 -8 81 2 2 82 -11 178 -27 794 -137 1650 -406 1830 -576 79 -74 89 -165
85 -716 l-3 -404 -25 -43 c-36 -63 -73 -82 -182 -93 -122 -11 -6314 -11 -6436
0 -109 11 -146 30 -182 93 l-25 43 -3 405 c-4 551 7 641 85 715 180 169 1035
438 1825 575 94 16 174 27 177 25 2 -3 0 -41 -5 -86 -9 -78 -9 -80 11 -75 90
23 129 28 133 17 5 -16 68 -14 127 5 28 8 97 21 153 30 116 16 132 22 156 59
21 32 62 50 136 60 185 26 1016 26 1205 1z"/>
<path d="M2821 5018 c0 -24 3 -60 7 -80 7 -36 8 -37 32 -25 35 17 41 96 11
126 -34 34 -51 27 -50 -21z"/>
<path d="M4111 4941 c-25 -48 -19 -61 27 -61 24 0 24 0 2 80 -6 24 -8 23 -29
-19z"/>
<path d="M4240 4409 c-108 -16 -169 -46 -246 -123 -114 -114 -109 -84 -109
-696 0 -504 0 -516 21 -560 60 -127 212 -231 349 -238 175 -9 331 82 402 233
l28 60 3 513 c3 553 1 581 -50 657 -77 113 -244 178 -398 154z m85 -382 c13
-21 15 -80 13 -443 -3 -416 -3 -419 -24 -422 -11 -2 -32 6 -45 17 l-24 19 -3
394 c-2 216 0 408 3 426 5 27 10 32 35 32 20 0 35 -8 45 -23z"/>
<path d="M3470 4390 c0 -11 -7 -20 -15 -20 -22 0 -21 -246 0 -274 13 -17 15
-86 15 -442 0 -232 -3 -430 -6 -439 -16 -39 -71 -36 -176 10 -15 6 -18 2 -18
-20 0 -20 -4 -26 -15 -21 -13 5 -15 -16 -15 -148 0 -116 3 -156 13 -165 8 -6
45 -23 83 -38 58 -22 85 -27 169 -27 91 -1 104 1 146 26 64 38 134 119 154
177 28 86 35 209 35 646 0 362 2 435 15 459 11 21 15 62 15 156 l0 127 -82 6
c-46 4 -136 7 -200 7 -111 0 -118 -1 -118 -20z"/>
<path d="M2625 4369 c-104 -9 -202 -18 -217 -18 -17 -1 -29 -8 -33 -21 -3 -11
-13 -20 -21 -20 -8 0 -14 -3 -14 -7 0 -46 -185 -1205 -195 -1226 -11 -20 -15
-61 -15 -138 l0 -109 180 0 c173 0 180 1 180 20 0 13 7 20 20 20 19 0 20 7 20
106 0 91 -3 109 -20 131 -13 16 -20 41 -20 67 l0 41 75 -3 75 -4 0 -47 c0 -27
-8 -63 -20 -86 -16 -32 -20 -59 -20 -142 l0 -103 200 0 c193 0 200 1 200 20 0
13 7 20 20 20 19 0 20 7 20 105 0 78 -4 112 -15 129 -11 16 -40 219 -95 647
-44 343 -80 627 -80 632 0 8 14 9 -225 -14z m-15 -871 c0 -27 -2 -28 -51 -28
l-52 0 6 38 c3 20 13 105 22 187 9 83 19 157 22 165 6 14 52 -304 53 -362z"/>
<path d="M4750 4330 c0 -11 -7 -20 -15 -20 -13 0 -15 -23 -15 -150 0 -132 2
-153 20 -182 19 -32 20 -51 20 -453 0 -402 -1 -421 -20 -453 -17 -27 -20 -50
-20 -137 l0 -105 175 0 c149 0 175 2 175 15 0 8 9 15 20 15 19 0 20 7 20 112
0 92 -3 115 -17 131 -15 16 -19 43 -21 153 l-4 134 46 0 46 0 0 -148 c0 -115
-3 -153 -15 -168 -11 -14 -14 -48 -15 -131 l0 -113 180 0 c153 0 180 2 180 15
0 8 9 15 20 15 19 0 20 7 20 110 0 79 -4 117 -14 133 -12 18 -15 95 -18 409
l-3 386 23 31 c20 27 22 41 22 151 0 66 -2 120 -5 120 -3 0 -85 18 -181 40
-97 22 -178 40 -180 40 -2 0 -4 -9 -4 -20 0 -13 -7 -20 -20 -20 -19 0 -20 -7
-20 -129 0 -95 4 -136 15 -157 11 -21 15 -63 15 -156 l0 -128 -46 0 -45 0 3
149 c2 125 6 152 21 168 14 17 17 41 17 165 l0 145 -167 26 c-200 32 -193 32
-193 7z"/>
<path d="M1845 4274 c-135 -19 -365 -89 -365 -110 0 -7 -9 -16 -20 -19 -18 -6
-20 -15 -20 -110 0 -86 3 -110 20 -138 20 -34 21 -48 18 -425 -3 -355 -5 -392
-20 -409 -15 -16 -18 -39 -18 -126 l0 -107 175 0 c168 0 175 1 175 20 0 13 7
20 20 20 19 0 20 7 20 103 0 85 -3 107 -20 132 -11 17 -20 46 -20 66 l0 36 83
6 c111 9 142 19 208 71 107 84 122 153 117 540 -3 283 -3 281 -65 363 -48 63
-180 102 -288 87z m-10 -309 c25 -24 25 -25 25 -217 0 -106 -3 -203 -6 -215
-5 -17 -14 -23 -35 -23 l-29 0 0 240 c0 160 3 240 10 240 6 0 22 -11 35 -25z"/>
<path d="M5600 4170 c0 -13 -7 -20 -20 -20 -19 0 -20 -7 -20 -122 1 -92 4
-128 15 -142 23 -30 22 -824 0 -832 -12 -5 -15 -27 -15 -115 l0 -109 125 0
c104 0 125 2 125 15 0 8 9 15 20 15 18 0 20 8 22 113 l3 112 35 -127 34 -128
118 0 c98 0 118 3 118 15 0 8 9 15 20 15 19 0 19 10 22 439 l3 439 23 31 c21
28 22 40 20 133 l-3 102 -130 42 -130 42 -3 -25 c-3 -19 -8 -23 -23 -18 -18 6
-19 0 -20 -87 l-1 -93 -27 129 -26 130 -108 27 c-171 43 -177 43 -177 19z
m246 -1077 c-10 -10 -15 1 -21 47 l-5 45 16 -43 c9 -24 13 -46 10 -49z"/>
<path d="M1116 4106 c-106 -29 -161 -48 -168 -59 -5 -9 -16 -17 -23 -17 -8 0
-15 -4 -15 -9 0 -35 -142 -947 -150 -961 -6 -10 -10 -66 -10 -124 l0 -106 140
0 c133 0 140 1 140 20 0 13 7 20 20 20 19 0 20 7 20 108 0 59 -4 112 -9 117
-5 6 -12 25 -16 43 -7 32 -7 32 34 32 l41 0 0 -43 c0 -24 -7 -52 -15 -63 -10
-14 -14 -48 -15 -126 l0 -108 145 0 c138 0 145 1 145 20 0 13 7 20 20 20 19 0
20 7 20 108 0 59 -4 112 -10 118 -5 5 -35 237 -66 514 -30 278 -59 512 -62
521 -6 14 -25 11 -166 -25z m-11 -671 l7 -75 -27 0 -28 0 7 73 c3 39 9 95 13
122 l7 50 7 -47 c4 -26 10 -81 14 -123z"/>
<path d="M6292 3968 c-19 -19 -14 -54 11 -71 20 -13 21 -18 9 -37 -26 -42 3
-43 41 0 40 43 47 79 21 104 -18 19 -65 21 -82 4z"/>
<path d="M425 3884 c-55 -20 -115 -41 -132 -47 -18 -6 -33 -16 -33 -23 0 -7
-9 -16 -20 -19 -18 -6 -20 -15 -20 -84 0 -52 5 -83 15 -97 21 -28 22 -521 0
-550 -10 -14 -14 -48 -15 -126 l0 -108 135 0 c128 0 135 1 135 20 0 13 7 20
20 20 19 0 20 7 20 109 0 84 -3 111 -15 121 -8 7 -15 25 -15 41 0 27 3 29 36
29 19 0 55 5 79 11 58 15 146 98 163 155 15 51 16 423 2 475 -31 111 -168 139
-355 73z m122 -379 l2 -155 -25 0 -24 0 0 177 0 177 23 -22 c21 -21 22 -31 24
-177z"/>
<path d="M6425 3861 c-57 -26 -128 -106 -155 -177 -19 -47 -24 -79 -24 -159
-1 -93 1 -104 29 -154 36 -65 81 -105 155 -136 l55 -24 -101 -1 c-93 0 -102
-2 -107 -20 -3 -11 -12 -20 -21 -20 -14 0 -16 -17 -16 -123 l0 -124 38 -37
c55 -56 106 -78 189 -84 64 -4 79 -1 125 22 60 29 127 90 166 149 26 40 27 44
27 201 0 144 -2 165 -20 192 -31 48 -78 83 -163 120 -88 38 -112 62 -112 110
0 66 58 27 67 -45 l6 -41 93 0 c77 0 94 3 94 15 0 8 9 15 20 15 19 0 20 7 20
113 l0 113 -48 37 c-76 58 -127 77 -207 77 -47 0 -83 -7 -110 -19z m110 -676
c18 -17 25 -35 25 -62 0 -78 -20 -102 -54 -67 -19 18 -23 154 -6 154 6 0 22
-11 35 -25z"/>
</g>
</svg>
